<svg id="Capa_2" data-name="Capa 2" xmlns="http://www.w3.org/2000/svg" xmlns:xlink="http://www.w3.org/1999/xlink" viewBox="0 0 191 58"><defs><style>.cls-1{fill:none;}.cls-2{clip-path:url(#clip-path);}.cls-3{fill:url(#Degradado_sin_nombre_4);}.cls-4{clip-path:url(#clip-path-2);}.cls-5{fill:url(#Degradado_sin_nombre_2);}</style><clipPath id="clip-path"><path class="cls-1" d="M4.75,11.41H10L35.22,39.09V11.86a27.13,27.13,0,0,0-30.47-.45"/></clipPath><linearGradient id="Degradado_sin_nombre_4" x1="-834.05" y1="-1141.14" x2="-833.52" y2="-1141.14" gradientTransform="translate(48576.87 66479.04) scale(58.24)" gradientUnits="userSpaceOnUse"><stop offset="0" stop-color="#029057"/><stop offset="1" stop-color="#016939"/></linearGradient><clipPath id="clip-path-2"><path class="cls-1" d="M4.75,48.09a27.2,27.2,0,0,0,30.51.45H30L4.75,20.85Z"/></clipPath><linearGradient id="Degradado_sin_nombre_2" x1="-834.05" y1="-1141.36" x2="-833.52" y2="-1141.36" gradientTransform="translate(48577.21 66506.04) scale(58.24)" gradientUnits="userSpaceOnUse"><stop offset="0" stop-color="#f7b01f"/><stop offset="1" stop-color="#d46d27"/></linearGradient></defs><g class="cls-2"><rect class="cls-3" x="4.75" y="6.95" width="30.51" height="32.15"/></g><g class="cls-4"><rect class="cls-5" x="4.75" y="20.85" width="30.51" height="32.15"/></g><polygon points="51.21 45.88 51.21 14.07 51.9 14.07 73.05 38.4 73.05 14.07 76.15 14.07 76.15 45.88 75.42 45.88 54.52 21.84 54.52 45.88 51.21 45.88"/><path d="M96.85,14l14.8,31.78h-3.39l-5-10.47H89.61l-5,10.47H81.1L96.11,14Zm-.37,6.75L91,32.27h10.88Z"/><path d="M114,39.42l2.7-1.63c1.88,3.51,4.09,5.23,6.59,5.23a6.36,6.36,0,0,0,3-.74,4.81,4.81,0,0,0,2.13-2,5.13,5.13,0,0,0,.74-2.66,5.7,5.7,0,0,0-1.07-3.15,16,16,0,0,0-5.48-4.33,28.42,28.42,0,0,1-5-4.34A7.73,7.73,0,0,1,116,20.94a7.36,7.36,0,0,1,1-3.77,7.08,7.08,0,0,1,2.78-2.7,8.29,8.29,0,0,1,3.93-1,8,8,0,0,1,4.17,1.15A14.2,14.2,0,0,1,132,18.73l-2.58,2a12.93,12.93,0,0,0-3-3.11,5.49,5.49,0,0,0-2.79-.77A4.43,4.43,0,0,0,120.45,18a3.78,3.78,0,0,0-1.23,2.86,4.86,4.86,0,0,0,.41,2,6.7,6.7,0,0,0,1.59,2.08c.41.41,1.8,1.48,4.13,3.19a32.16,32.16,0,0,1,5.65,5,7.06,7.06,0,0,1,1.51,4.38,8,8,0,0,1-2.62,6,8.75,8.75,0,0,1-6.38,2.54,9.33,9.33,0,0,1-5.27-1.56A13.35,13.35,0,0,1,114,39.42"/><rect x="138.15" y="14.07" width="3.19" height="31.78"/><polygon points="148.58 45.88 148.58 14.07 149.28 14.07 170.42 38.4 170.42 14.07 173.53 14.07 173.53 45.88 172.84 45.88 151.9 21.84 151.9 45.88 148.58 45.88"/><rect x="180.81" y="14.07" width="3.19" height="31.78"/></svg>